<svg xmlns="http://www.w3.org/2000/svg" viewBox="0 0 500 500"><path d="M296.033 51.166c.62-2.634-5.235-4.64 3.97-8.106 12.004 1.626 23.673 3.55 37.715 18.196 5.7 5.975 4.457 11.703 1.5 17.37-.37 3.55-16.54 19.277-24.393 31.57-5.485 8.586-13.458 14.646-20.6 19.875-3.556 3.882 12.353 6.15 18.03-1.158 1.027-2.044 2.3-4.167 10.425-4.764.82-.06 1.515.057 2.9.42 3.7.983 28.342 8.08 39.95 29.88.326.37 1.608.078 1.5.6-1.85 8.102-9.495 10.272-22.497 12.737l-4.466-1.985c-8.505-2.73-29.654-1.195-77.25 9.263-2.197 1.13-3.2 2.363-1.654 3.805 3.846 3.694 7.115 7.4 8.767 11.083 1.555 3.414.356 5.576-1.5 7.444-2.826 3.002-4.893 5.434-5.955 7.113-.9 2.097-1.202 3.77 2.812 2.48l11.25-3.308c1.8-3.17 3.385-6.625 6.45-8.106 2.183-1.22 4.518-2.2 8.436-.827 14.13 4.672 21.032 10.65 28.53 16.2.847-.405 1.8-.188 2.735.185 6.07 8.54 11.297 13.565 5.46 24.152l-6.45 11.58c-2.864 27.222-1.055 50.28-1.247 75.626-.064 10.5.545 21.722-1.5 30.107l-1.954 13.517c-17.84 32.877-41.006 12.82-41.958-6.267l.496-3.474c-.763-.88-1.585-.638-3.115-.117l-26.827.944c-5.334.356-6.513 1.745-8.796 3.045-4.707 3.183-9.77 5.756-14.022 8.33-11.542 5.837-12.484.44-18.536-4.593-4.52-7.334-6.618-12.242-13.565-22-.866-5.415.68-6.937 2.647-7.775 1.325-29.332 6.46-52.392 3.97-88.003.965-2.803-3.925-8.86-8.767-14.888-2.084-5.78-3.44-11.16 7.94-9.594l27.13 15.715c4.176 1.85 3.8 8.706 4.632 14.3 36.784-10.35 26.154-11.162 42.018-12.076 9.566 2.482 13.676 8.16 3.474 16.8l-37.883 13.896c-3.486.67-6.635 1.9-7.94 6.286l-.827 10.1c-.937 5.094 4.883 1.825 7.444 1.985 7.685-4.905 21.003-8.596 32.92-10.918 22.185 5.53 15.4 26.435 11.656 26.1-11.746-1.055-33.305 4.218-49.724 14.676-1.554.437-3.427 1.4-3.784 2.77l.33 9.057c.78 3.4 2.216 3.065 3.64 2.812 12.43-3.65 20.253-7.54 41.192-5.2 4.48-.855 14.484 1.105 11.083-3.887 3.685-35.954-.12-68.94-1.82-104.38.47-3.905-1.964-3.335-3.308-3.474l-11.414.496c-4.33.907-7.583 2.894-11.083 4.632-5.23 3.435-12.314 5.757-18.527 8.602-6.077.64-11.262 3.78-24.425-7.98l-6.674 2.025c-3.192.086-5.3-2.76-1.917-4.37 13.8-10.56 21.014-19.74 31.265-34.077 1.66-1.846.704-4.253-2.384-3.57-9.864 2.996-35.415 15.47-49.13 23.324-4.63 2.635-8.712 2.975-12.407 0-12.826-6.337-22.708-16.474-31.596-27.626-3.698-8.457 4.963-4.136 4.963-4.136 1.244 1.26 2 .13 2.978 0 10.505-7.64 29.367-13.34 53.267-17.866v-1.158L175.6 81.108c-1.354-6.223.832-5.955 3.143-5.46 14.716 2.16 26.5 9.205 39.75 13.807 14.37 13.556 9.798 20.55 10.208 28.872l-1.985 26.798c.014 2.523 1.057 2.158 2.15 1.654l21-4.797c3.465-1.494 4.62-4.433 6.45-6.948 8.745-9.857 30.792-46.874 39.7-83.868zM86.444 153.398c2.612 1.7 4.287 3.38 3.484 5.07-2.75 4.722-6.4 9.15-9.314 11.862-4.313 6.22 2.045 6.3 4 5.028 3.12-2 1.1-2.558 9.43-4.6 2.937-.718 3.455-2.415 4.983-1.716 3.138 1.435 10.047.016 16.63 1.133 3.428.582 3.85.6 4.687.252 6.67-2.84 11.638-5.703 9.925-18.03 1.26-4.63-5.054-12.383-11.083-20.016l-11.083-13.565c-3.378-5.105-5.973-2.57-8.767-1.985-1.08.486-2.143 1.885-7.28 1.158-.905-.128-1.006-.75-4.797-1.158-1.217-.13-1.392.233-4.047-.516-2.816-.795-4.286-2.088-6.2-2.296-12.3.07-10.36 6.12-9.43 11.745zm20.886 55.175c2.824-2.4 1.17-7.017 9.007-6.9l3.04.585 2.573 1.87c7.24 2.9 11.484 9.63 16.727 15.1 1.928 1.585 3.736 3.283 3.275 7.135 1.1 7.636-.953 10.737-3.04 13.802-3.982 2.392-7.38 8.797-11.23 14.153l-9.24 17.896c-.446 1.317-2.546 1.807 1.053 5.147 4.016 3.392 10.266 8.273 12.048 10.177 14.815 16.57 9.13 28.576 9.24 31.933-2.722 9.992-4.753 21.02-9.825 27.488l-3.04 4.094c-.344.464-1.185 1.705.936 1.52 0 0 1.8-.422 2.7-.234.393.084.852.5 1.33.585 20.5 3.143 56.243 6.438 71.775 15.206 22.62 10.3 48.733 14.834 75.678 18.013 2.44.114 3.596.4 12.587.62 2.3.058 2.123.432 4.775-.577 8.298-3.156 26.188-3.162 42.06-3.318l70.65.234 24.68-3.158c5.926-.793 9.7-3.252 18.13-2.105l9.708 1.404c2.847.74 3.423 1.836.35 3.5-1.507.442-1.364 1.12-.702 1.87.72 2.018 1.346 3.473 1.755 3.626l2.34 1.872c2.725 1.56 4.756 3.05 1.287 5.848-8.435 7.023-10.98 12.652-30.178 22.224-2.43 1.895-8.9 3.12-13.335 4.68-18.465 5.986-37.375 11.874-64.1 16.025l-15.674 2.7-12.282 1.872-5.615 1.287-11.814 2.7c-5.608.677-10.937 1.146-12.867-.936l-27.137-11.58c-33.344-14.75-64.52-29.742-100.362-44.213-20.432-5.76-36.136-15.5-73.34-7.135-7.2 2.233-13.9 7.748-20.82 11.93-12.374 6.007-23.605 9.312-30.412-.117-3.576-5.303-7.097-11.03-10.06-20.938 0 0-3.794-10.785 6.667-10.995 2.155.547 4.955.852 9.592.468 10.893-3.197-.247.942 33.687-9.592 3.47-3.93 6.94-8.446 10.4-14.855 2.382-10.084 3.28-.28 11.346-31.582-1.515-3.95 1.984-.494-5.615-13.57l-9.942-10.527c-1.618-3.125-3.753-5.4-2.7-12.984 1.65-7.07 3.074-13.998 7.135-22.575 1.338-1.624.325-3.292-.35-2.7-7.97 7.094-18.903 14.974-18.832 14.036-6.467 3.083-8.818.783-11.346-1.287-5.033-5.206-10.252-10.183-11.346-20.236.082-.47-2.823-11.357 7.954-9.708.677.68 1.763 1.206 6.433.35 15.47-8.832 29.25-14.218 34.272-20.12z"/></svg>